# xmcd
#
# Track frame offsets: 
#        150
#        14625
#        32822
#        56209
#        72777
#        90622
#        110650
#        137277
#        160331
#        191336
#        213817
#
# Disc length: 3065 seconds
#
# Revision: 1
# Processed by: cddbd v1.5.1PL2 Copyright (c) Steve Scherf et al.
# Submitted via: ExactAudioCopy v0.95a3
#
DISCID=940bf70b
DTITLE=Sara Gazarek - Yours
DYEAR=2005
DGENRE=Jazz
TTITLE0=My Shining Hour
TTITLE1=Yours
TTITLE2=Amazing
TTITLE3=Ev'ry Time We Say Goodbye
TTITLE4=Cheek to Cheek
TTITLE5=You Got By
TTITLE6=Blackbird/Bye Bye Blackbird
TTITLE7=The Circle Game
TTITLE8=All Or Nothing At All
TTITLE9=Too Young To Go Steady
TTITLE10=You Are My Sunshine
EXTD=YEAR: 2005
EXTT0=
EXTT1=
EXTT2=
EXTT3=
EXTT4=
EXTT5=
EXTT6=
EXTT7=
EXTT8=
EXTT9=
EXTT10=
PLAYORDER=
